<?xml version="1.0" encoding="UTF-8"?>
<!DOCTYPE svg PUBLIC "-//W3C//DTD SVG 1.1//EN" "http://www.w3.org/Graphics/SVG/1.1/DTD/svg11.dtd">
<svg xmlns="http://www.w3.org/2000/svg" version="1.1" width="1080px" height="1080px" style="shape-rendering:geometricPrecision; text-rendering:geometricPrecision; image-rendering:optimizeQuality; fill-rule:evenodd; clip-rule:evenodd" xmlns:xlink="http://www.w3.org/1999/xlink">
<g><path style="opacity:1" fill="#000000" d="M -0.5,-0.5 C 359.5,-0.5 719.5,-0.5 1079.5,-0.5C 1079.5,359.5 1079.5,719.5 1079.5,1079.5C 719.5,1079.5 359.5,1079.5 -0.5,1079.5C -0.5,719.5 -0.5,359.5 -0.5,-0.5 Z"/></g>
<g><path style="opacity:1" fill="#c6c6c1" d="M 636.5,346.5 C 636.5,346.833 636.5,347.167 636.5,347.5C 612.485,347.25 588.485,347.584 564.5,348.5C 565.952,347.698 567.618,347.198 569.5,347C 591.831,346.5 614.164,346.333 636.5,346.5 Z"/></g>
<g><path style="opacity:1" fill="#f2f2ec" d="M 636.5,347.5 C 636.5,369.167 636.5,390.833 636.5,412.5C 619.325,412.17 602.325,412.503 585.5,413.5C 553.83,414.909 530.664,429.576 516,457.5C 512.24,466.136 510.074,475.136 509.5,484.5C 508.502,511.328 508.169,538.328 508.5,565.5C 486.5,565.5 464.5,565.5 442.5,565.5C 442.066,532.14 442.566,498.807 444,465.5C 455.007,413.673 484.84,377.173 533.5,356C 543.562,352.298 553.895,349.798 564.5,348.5C 588.485,347.584 612.485,347.25 636.5,347.5 Z"/></g>
<g><path style="opacity:1" fill="#939393" d="M 636.5,346.5 C 637.497,368.66 637.831,390.994 637.5,413.5C 620.167,413.5 602.833,413.5 585.5,413.5C 602.325,412.503 619.325,412.17 636.5,412.5C 636.5,390.833 636.5,369.167 636.5,347.5C 636.5,347.167 636.5,346.833 636.5,346.5 Z"/></g>
<g><path style="opacity:1" fill="#f2f2ed" d="M 573.5,501.5 C 594.5,501.5 615.5,501.5 636.5,501.5C 636.5,522.5 636.5,543.5 636.5,564.5C 636.5,543.5 636.5,522.5 636.5,501.5C 615.5,501.5 594.5,501.5 573.5,501.5 Z"/></g>
<g><path style="opacity:1" fill="#bcbcb8" d="M 573.5,501.5 C 573.5,522.5 573.5,543.5 573.5,564.5C 594.5,564.5 615.5,564.5 636.5,564.5C 615.673,565.497 594.673,565.831 573.5,565.5C 573.167,565.5 572.833,565.5 572.5,565.5C 572.5,565.167 572.5,564.833 572.5,564.5C 572.169,543.327 572.503,522.327 573.5,501.5 Z"/></g>
<g><path style="opacity:1" fill="#f2f2ed" d="M 572.5,565.5 C 572.5,586.5 572.5,607.5 572.5,628.5C 551.5,628.5 530.5,628.5 509.5,628.5C 509.5,607.5 509.5,586.5 509.5,565.5C 530.5,565.5 551.5,565.5 572.5,565.5 Z"/></g>
<g><path style="opacity:1" fill="#9f9f99" d="M 572.5,565.5 C 572.833,565.5 573.167,565.5 573.5,565.5C 573.5,586.833 573.5,608.167 573.5,629.5C 552.167,629.5 530.833,629.5 509.5,629.5C 509.5,629.167 509.5,628.833 509.5,628.5C 530.5,628.5 551.5,628.5 572.5,628.5C 572.5,607.5 572.5,586.5 572.5,565.5 Z"/></g>
<g><path style="opacity:1" fill="#7b7b78" d="M 509.5,484.5 C 509.5,511.167 509.5,537.833 509.5,564.5C 530.5,564.5 551.5,564.5 572.5,564.5C 572.5,564.833 572.5,565.167 572.5,565.5C 551.5,565.5 530.5,565.5 509.5,565.5C 509.5,586.5 509.5,607.5 509.5,628.5C 509.5,628.833 509.5,629.167 509.5,629.5C 509.5,650.833 509.5,672.167 509.5,693.5C 487.833,693.5 466.167,693.5 444.5,693.5C 444.169,671.993 444.503,650.66 445.5,629.5C 466.327,628.503 487.327,628.169 508.5,628.5C 508.5,607.5 508.5,586.5 508.5,565.5C 508.169,538.328 508.502,511.328 509.5,484.5 Z"/></g>
<g><path style="opacity:1" fill="#f2f2ed" d="M 445.5,629.5 C 466.5,629.5 487.5,629.5 508.5,629.5C 508.5,650.5 508.5,671.5 508.5,692.5C 487.5,692.5 466.5,692.5 445.5,692.5C 445.5,671.5 445.5,650.5 445.5,629.5 Z"/></g>
<g><path style="opacity:1" fill="#d7d7d7" d="M 633.5,667.5 C 647.071,667.898 651.904,674.564 648,687.5C 642.733,693.683 636.566,694.849 629.5,691C 624.848,686.464 623.348,680.964 625,674.5C 626.866,670.784 629.699,668.45 633.5,667.5 Z"/></g>
<g><path style="opacity:1" fill="#0f0f0f" d="M 632.5,669.5 C 644.621,669.121 649.121,674.787 646,686.5C 638.854,693.622 632.52,692.955 627,684.5C 625.513,678.163 627.346,673.163 632.5,669.5 Z"/></g>
<g><path style="opacity:1" fill="#cccccc" d="M 634.5,673.5 C 637.272,673.22 639.772,673.887 642,675.5C 642.749,676.635 642.583,677.635 641.5,678.5C 635.398,674.071 632.898,675.738 634,683.5C 635.133,685.211 636.633,685.711 638.5,685C 639.713,682.674 641.046,682.341 642.5,684C 638.627,688.774 634.793,688.608 631,683.5C 629.756,679.191 630.923,675.858 634.5,673.5 Z"/></g>
</svg>
